<svg width="51" height="43" viewBox="0 0 51 43" fill="none" xmlns="http://www.w3.org/2000/svg">
<path d="M37.4836 37.1777H12.7338C12.4446 37.1784 12.1584 37.1292 11.8932 37.0331C11.6281 36.937 11.3897 36.796 11.1933 36.6192C10.9968 36.4424 10.8465 36.2335 10.7518 36.0058C10.6572 35.7781 10.6203 35.5365 10.6434 35.2963L12.4202 16.1347C12.4624 15.6973 12.701 15.2892 13.0886 14.9921C13.4761 14.695 13.984 14.5307 14.5106 14.5321H35.7068C36.2334 14.5307 36.7413 14.695 37.1288 14.9921C37.5164 15.2892 37.7551 15.6973 37.7972 16.1347L39.574 35.2963C39.5971 35.5365 39.5602 35.7781 39.4656 36.0058C39.3709 36.2335 39.2206 36.4424 39.0242 36.6192C38.8277 36.796 38.5893 36.937 38.3242 37.0331C38.059 37.1292 37.7728 37.1784 37.4836 37.1777V37.1777Z" stroke="#333333" stroke-width="1.39357" stroke-linecap="round" stroke-linejoin="round"/>
<path d="M18.8379 19.758V11.0482C18.8379 9.66217 19.4986 8.33294 20.6746 7.3529C21.8507 6.37285 23.4458 5.82227 25.109 5.82227V5.82227C26.7722 5.82227 28.3672 6.37285 29.5433 7.3529C30.7193 8.33294 31.38 9.66217 31.38 11.0482V19.758" stroke="#333333" stroke-width="1.39357" stroke-linecap="round" stroke-linejoin="round"/>
</svg>
