<svg width="42" height="43" viewBox="0 0 42 43" fill="none" xmlns="http://www.w3.org/2000/svg">
<path d="M34.283 10.0726C35.8797 11.6757 36.7761 13.846 36.7761 16.1086C36.7761 18.3711 35.8797 20.5414 34.283 22.1445L21.0963 35.4357L7.90962 22.1445C6.72377 20.9506 5.91642 19.4335 5.58864 17.783C5.26086 16.1325 5.42722 14.422 6.06689 12.8656C6.70656 11.3092 7.79111 9.97605 9.18479 9.03306C10.5785 8.09007 12.2193 7.57914 13.902 7.56421C16.152 7.57786 18.3056 8.47937 19.8943 10.0726C20.3577 10.5312 20.7616 11.0462 21.0963 11.6056C21.4311 11.0462 21.8349 10.5312 22.2983 10.0726C23.0811 9.2784 24.014 8.6477 25.0427 8.21721C26.0714 7.78672 27.1755 7.56503 28.2906 7.56503C29.4058 7.56503 30.5098 7.78672 31.5386 8.21721C32.5673 8.6477 33.5002 9.2784 34.283 10.0726V10.0726Z" stroke="#333333" stroke-width="1.39357" stroke-linecap="round" stroke-linejoin="round"/>
</svg>
